<svg xmlns="http://www.w3.org/2000/svg" viewBox="0 0 32 32"><rect width="32" height="32" rx="7" fill="#111111"/><path fill="#f2f1ec" d="M21.59 20.33Q21.59 23.33 19.36 24.91Q17.14 26.5 12.84 26.5Q8.91 26.5 6.68 25.11Q4.45 23.72 3.81 20.9L7.94 20.21Q8.36 21.84 9.58 22.57Q10.8 23.3 12.95 23.3Q17.43 23.3 17.43 20.58Q17.43 19.71 16.91 19.14Q16.4 18.58 15.47 18.2Q14.53 17.82 11.88 17.29Q9.59 16.75 8.7 16.43Q7.8 16.1 7.07 15.66Q6.35 15.22 5.84 14.6Q5.34 13.97 5.05 13.13Q4.77 12.29 4.77 11.21Q4.77 8.44 6.85 6.97Q8.93 5.5 12.9 5.5Q16.69 5.5 18.59 6.69Q20.5 7.88 21.05 10.61L16.91 11.18Q16.59 9.86 15.61 9.19Q14.63 8.53 12.81 8.53Q8.93 8.53 8.93 10.96Q8.93 11.76 9.34 12.26Q9.75 12.77 10.56 13.13Q11.37 13.48 13.85 14.02Q16.79 14.64 18.06 15.17Q19.33 15.7 20.06 16.4Q20.8 17.1 21.19 18.08Q21.59 19.06 21.59 20.33Z"/><rect x="23.19" y="21.50" width="5.0" height="5.0" fill="#c6f432"/></svg>
